<?xml version="1.0" encoding="iso-8859-1"?>
<!-- Uploaded to: SVG Repo, www.svgrepo.com, Generator: SVG Repo Mixer Tools -->
<!DOCTYPE svg PUBLIC "-//W3C//DTD SVG 1.1//EN" "http://www.w3.org/Graphics/SVG/1.1/DTD/svg11.dtd">
<svg fill="#000000" height="800px" width="800px" version="1.1" id="Capa_1" xmlns="http://www.w3.org/2000/svg" xmlns:xlink="http://www.w3.org/1999/xlink" 
	 viewBox="0 0 57 57" xml:space="preserve">
<g>
	<path d="M33,32.501v24h24v-24H33z M55,54.501H35v-20h9v12.586l-4.293-4.293l-1.414,1.414L45,50.915l6.707-6.707l-1.414-1.414
		L46,47.087V34.501h9V54.501z"/>
	<path d="M37,29.501h18v-28c0-0.321-0.154-0.623-0.416-0.812s-0.597-0.241-0.901-0.137l-17.73,5.91L19.229,2.527
		c-0.076-0.018-0.152-0.026-0.228-0.026c-0.048,0-0.094,0.017-0.142,0.024c-0.026,0.004-0.051-0.006-0.076,0l-18,4
		C0.326,6.627,0,7.032,0,7.501v43c0,0.304,0.138,0.59,0.375,0.78c0.179,0.144,0.4,0.22,0.625,0.22c0.072,0,0.145-0.008,0.217-0.023
		l17.807-3.957L30,49.457V29.501h5H37z M30,27.501c-1.105,0-2,0.895-2,2v17.572l-8-1.412V4.763l15,3.529v19.208H30z"/>
</g>
</svg>