<?xml version="1.0" encoding="iso-8859-1"?>
<!-- Uploaded to: SVG Repo, www.svgrepo.com, Generator: SVG Repo Mixer Tools -->
<!DOCTYPE svg PUBLIC "-//W3C//DTD SVG 1.1//EN" "http://www.w3.org/Graphics/SVG/1.1/DTD/svg11.dtd">
<svg fill="#000000" height="800px" width="800px" version="1.1" id="Capa_1" xmlns="http://www.w3.org/2000/svg" xmlns:xlink="http://www.w3.org/1999/xlink" 
	 viewBox="0 0 297.167 297.167" xml:space="preserve">
<g>
	<circle cx="207.996" cy="80.077" r="18.699"/>
	<path d="M295.379,270.424l-47.651-88.627c4.835-8.555,13.514-24.392,21.351-41.21c12.045-25.848,17.417-43.565,17.417-57.448
		c0-43.285-35.215-78.5-78.5-78.5s-78.5,35.215-78.5,78.5c0,13.883,5.371,31.6,17.417,57.448
		c4.918,10.553,10.166,20.714,14.592,28.945H65c-5.521,0-10.597,3.033-13.212,7.896l-50,92.996
		c-2.499,4.648-2.371,10.269,0.337,14.8c2.707,4.53,7.597,7.304,12.875,7.304h267.167c5.278,0,10.167-2.773,12.875-7.304
		C297.75,280.693,297.878,275.073,295.379,270.424z M159.496,83.139c0-26.743,21.757-48.5,48.5-48.5s48.5,21.757,48.5,48.5
		c0,20.843-27.139,70.258-35.456,84.906c-2.665,4.694-7.646,7.594-13.044,7.594s-10.379-2.899-13.044-7.594
		C186.634,153.397,159.496,103.982,159.496,83.139z M40.096,262.528l33.87-62.996h111.421c6.76,3.929,14.539,6.107,22.608,6.107
		c5.824,0,11.49-1.15,16.737-3.258l32.338,60.147H40.096z"/>
</g>
</svg>